
        <svg xmlns="http://www.w3.org/2000/svg" xmlns:xlink="http://www.w3.org/1999/xlink" version="1.1" width="3187.5" 
        height="1124.9941381933438" viewBox="0 0 3187.5 1124.9941381933438">
			
			<g transform="scale(9.375) translate(10, 10)">
				<defs id="SvgjsDefs1492"><linearGradient id="SvgjsLinearGradient1497"><stop id="SvgjsStop1498" stop-color="#00ff8f" offset="0"></stop><stop id="SvgjsStop1499" stop-color="#00a1ff" offset="1"></stop></linearGradient><linearGradient id="SvgjsLinearGradient1500"><stop id="SvgjsStop1501" stop-color="#00ff8f" offset="0"></stop><stop id="SvgjsStop1502" stop-color="#00a1ff" offset="1"></stop></linearGradient></defs><g id="SvgjsG1493" featureKey="UFHKJ9-0" transform="matrix(1.3890507969195696,0,0,1.3890507969195696,-19.450028210855265,-19.450665392550555)" fill="url(#SvgjsLinearGradient1497)"><g xmlns="http://www.w3.org/2000/svg"><path fill="url(#SvgjsLinearGradient1497)" d="M30.595,14.008c-0.027,0-0.084,0-0.113,0.028c-0.339,0.057-0.622,0.425-0.622,0.793v5.978   c0,0.057,0,0.085,0,0.113h-4.161c-2.604,0-4.728,2.125-4.728,4.731v4.165c-0.028,0-0.057,0-0.085,0h-6.001   c-0.028,0-0.057,0-0.085,0c-0.396,0.028-0.764,0.425-0.764,0.85c0.028,0.396,0.424,0.765,0.849,0.737h6.001   c0.028,0.028,0.057,0.028,0.085,0v3.966c-0.028,0-0.057,0-0.085,0h-6.001c-0.028,0-0.057,0-0.085,0   c-0.396,0-0.764,0.425-0.764,0.821c0.028,0.425,0.424,0.793,0.849,0.765h6.001c0.028,0,0.057,0,0.085,0v3.966   c-0.028-0.028-0.057-0.028-0.085,0h-6.001c-0.057-0.028-0.113-0.028-0.142,0c-0.424,0.028-0.764,0.453-0.736,0.85   c0.057,0.425,0.453,0.765,0.877,0.736h6.001c0.028,0,0.057,0,0.085,0v3.91c-0.028,0-0.057,0-0.085,0h-6.001   c-0.028,0-0.057,0-0.085,0c-0.396,0.028-0.764,0.425-0.764,0.85c0.028,0.425,0.424,0.793,0.849,0.765h6.001   c0.028,0,0.057,0,0.085,0v3.938c-0.028,0-0.057,0-0.085,0h-6.001c-0.057,0-0.113,0-0.142,0c-0.424,0.057-0.764,0.453-0.736,0.878   c0.057,0.425,0.453,0.765,0.877,0.736h6.001c0.028,0,0.057,0,0.085,0v3.938c-0.028,0-0.057,0-0.085,0h-6.001   c-0.057,0-0.113,0-0.142,0c-0.424,0.028-0.764,0.453-0.736,0.878c0.057,0.426,0.453,0.766,0.877,0.737h6.001   c0.028,0,0.057,0,0.085,0v3.909c-0.028,0-0.057,0-0.085,0h-6.001c-0.028,0-0.057,0-0.085,0c-0.396,0.028-0.764,0.425-0.764,0.85   c0.028,0.397,0.424,0.766,0.849,0.737h6.001c0.028,0,0.057,0,0.085,0v3.966c-0.028,0-0.057,0-0.085,0h-6.001   c-0.057,0-0.113,0-0.142,0c-0.424,0.028-0.764,0.453-0.736,0.879c0.057,0.396,0.453,0.765,0.877,0.708h6.001   c0.028,0,0.057,0,0.085,0v4.165c0,2.635,2.123,4.73,4.728,4.73h4.161c0,0.028,0,0.085,0,0.113v5.979   c0,0.425,0.368,0.821,0.792,0.821c0.426,0,0.821-0.396,0.821-0.821v-5.979c0-0.028,0-0.085,0-0.113h3.935c0,0.028,0,0.085,0,0.113   v5.979c0,0.425,0.369,0.821,0.793,0.821c0.425,0,0.821-0.396,0.793-0.821v-5.979c0-0.028,0-0.085,0-0.113h3.963   c0,0.028,0,0.085,0,0.113v5.979c0,0.425,0.368,0.821,0.793,0.821c0.424,0,0.793-0.396,0.793-0.821v-5.979c0-0.028,0-0.085,0-0.113   h3.934c0,0.028,0,0.085,0,0.113v5.979c-0.027,0.425,0.369,0.821,0.793,0.821c0.425,0,0.793-0.396,0.793-0.821v-5.979   c0-0.028,0-0.085,0-0.113h3.934c0,0.028,0,0.085,0,0.113v5.979c0,0.425,0.396,0.821,0.821,0.821s0.792-0.396,0.792-0.821v-5.979   c0-0.028,0-0.085,0-0.113h3.936c0,0.028,0,0.085,0,0.113v5.979c0,0.425,0.396,0.821,0.792,0.821c0.425,0,0.821-0.396,0.821-0.821   v-5.979c0-0.028,0-0.085,0-0.113h3.906c0,0.028,0,0.085,0,0.113v5.979c0,0.425,0.368,0.821,0.793,0.821s0.821-0.396,0.821-0.821   v-5.979c0-0.028,0-0.085,0-0.113h3.935c0,0.028,0,0.085,0,0.113v5.979c0,0.425,0.368,0.821,0.792,0.821   c0.425,0,0.821-0.396,0.793-0.821v-5.979c0-0.028,0-0.085,0-0.113h4.189c2.604,0,4.699-2.096,4.699-4.73v-4.165   c0.057,0,0.085,0,0.113,0h6.001c0.396,0,0.793-0.368,0.793-0.793c0-0.426-0.396-0.794-0.793-0.794H79.2c-0.028,0-0.057,0-0.113,0   v-3.966c0.057,0,0.085,0,0.113,0h6.001c0.396,0.028,0.793-0.368,0.793-0.794c0-0.425-0.396-0.793-0.793-0.793H79.2   c-0.028,0-0.057,0-0.085,0c0,0,0,0-0.028,0V59.14c0.057,0,0.085,0,0.113,0h6.001c0.396,0,0.793-0.397,0.793-0.822   s-0.396-0.793-0.793-0.793H79.2c-0.028,0-0.057,0-0.113,0v-3.938c0.057,0,0.085,0,0.113,0h6.001c0.396,0,0.793-0.396,0.793-0.821   c0-0.396-0.396-0.793-0.793-0.793H79.2c-0.028,0-0.057,0-0.113,0v-3.938c0.057,0,0.085,0,0.113,0h6.001   c0.396,0,0.793-0.369,0.793-0.793s-0.396-0.822-0.793-0.822H79.2c-0.028,0-0.057,0-0.085,0c0,0,0,0-0.028,0v-3.91   c0.057,0,0.085,0,0.113,0h6.001c0.396,0,0.793-0.368,0.793-0.793c0-0.425-0.396-0.822-0.793-0.793H79.2   c-0.028-0.028-0.057-0.028-0.113,0v-3.966c0.057,0,0.085,0,0.113,0h6.001c0.396,0,0.793-0.368,0.793-0.793   c0-0.425-0.396-0.793-0.793-0.793H79.2c-0.028,0-0.057,0-0.085,0c0,0,0,0-0.028,0v-3.966c0.057,0.028,0.085,0.028,0.113,0h6.001   c0.396,0.028,0.793-0.369,0.793-0.793s-0.396-0.793-0.793-0.793H79.2c-0.028,0-0.057,0-0.085,0c0,0,0,0-0.028,0v-4.165   c0-2.606-2.095-4.731-4.699-4.731h-4.189c0-0.028,0-0.057,0-0.113V14.83c0.028-0.482-0.481-0.907-0.962-0.793   c-0.368,0.057-0.623,0.425-0.623,0.793v5.978c0,0.057,0,0.085,0,0.113h-3.935c0-0.028,0-0.057,0-0.113V14.83   c0-0.482-0.51-0.907-0.991-0.793c-0.34,0.057-0.623,0.425-0.623,0.793v5.978c0,0.057,0,0.085,0,0.113h-3.906   c0-0.028,0-0.057,0-0.113V14.83c0-0.482-0.51-0.907-0.991-0.793c-0.339,0.057-0.622,0.425-0.622,0.793v5.978   c0,0.057,0,0.085,0,0.113h-3.936c0-0.028,0-0.057,0-0.113V14.83c0-0.482-0.509-0.907-0.99-0.793   c-0.34,0.057-0.623,0.425-0.623,0.793v5.978c0,0.057,0,0.085,0,0.113h-3.934c0-0.028,0-0.057,0-0.113V14.83   c0.028-0.482-0.51-0.907-0.963-0.793c-0.367,0.057-0.65,0.425-0.623,0.793v5.978c0,0.057,0,0.085,0,0.113h-3.934   c0-0.028,0-0.057,0-0.113V14.83c0.027-0.482-0.51-0.907-0.963-0.793c-0.368,0.057-0.651,0.425-0.623,0.793v5.978   c0,0.057,0,0.085,0,0.113h-3.963c0-0.028,0-0.057,0-0.113V14.83c0.028-0.482-0.481-0.907-0.963-0.793   c-0.367,0.057-0.623,0.425-0.623,0.793v5.978c0,0.057,0,0.085,0,0.113h-3.935c0-0.028,0-0.057,0-0.113V14.83   C31.473,14.376,31.048,13.951,30.595,14.008L30.595,14.008z M25.699,22.507h48.689c1.755,0,3.114,1.388,3.114,3.145v48.702   c0,1.756-1.359,3.145-3.114,3.145H25.699c-1.756,0-3.114-1.389-3.114-3.145V25.652C22.584,23.896,23.943,22.507,25.699,22.507   L25.699,22.507z M30.511,29.816c-0.368,0.057-0.651,0.425-0.651,0.793v38.786c0,0.425,0.396,0.793,0.792,0.793h38.753   c0.425,0,0.793-0.368,0.793-0.793V30.61c0-0.425-0.368-0.793-0.793-0.793H30.652c0,0-0.027,0-0.057,0   C30.568,29.816,30.539,29.816,30.511,29.816L30.511,29.816z M31.473,31.403h37.14v37.198h-37.14V31.403L31.473,31.403z"></path></g></g><g id="SvgjsG1494" featureKey="XAPJzK-0" transform="matrix(2.3915402765948284,0,0,2.3915402765948284,116.65184281450455,18.72250619086926)" fill="url(#SvgjsLinearGradient1500)"><path d="M6.26 11.94 l0 -5.48 c0 -0.6 2.3 -0.6 2.3 0 l0 13.1 c0 0.6 -2.3 0.6 -2.3 0 l0 -5.36 l-2.58 0 l0 5.36 c0 0.6 -2.28 0.6 -2.28 0 l0 -13.1 c0 -0.6 2.28 -0.6 2.28 0 l0 5.48 l2.58 0 z M16.46 6.42 l2.08 12.7 c0.16 1 -2.1 1.1 -2.22 0.38 l-0.4 -2.4 l-2.34 0 l-0.4 2.4 c-0.1 0.6 -2.38 0.62 -2.22 -0.38 l2.1 -12.7 c0.1 -0.6 3.32 -0.54 3.4 0 z M15.540000000000001 14.84 l-0.78 -4.78 l-0.8 4.78 l1.58 0 z M32.34 6.76 l0 12.8 c0 0.6 -2.26 0.6 -2.26 0 l0 -6.64 c-2.32 6.46 -2.36 6.54 -2.4 6.62 c-0.26 0.6 -1.78 0.6 -2.04 0 c-0.04 -0.08 -0.08 -0.16 -2.42 -6.7 l0 6.72 c0 0.6 -2.28 0.6 -2.28 0 l0 -12.76 l0 -0.04 c0 -0.98 2.02 -0.94 2.22 -0.4 l3.5 9.2 l3.44 -9.2 c0.2 -0.54 2.24 -0.6 2.24 0.4 z M35.14 19.56 l0 -13.14 c0 -0.6 2.28 -0.6 2.28 0 l0 13.14 c0 0.6 -2.28 0.6 -2.28 0 z M41.42 6 l2.7 0 c3.34 0 3.44 14 0.2 14 l-2.84 0 c-1.26 0 -1.26 0 -1.26 -1.1 l0 -11.8 c0 -1.08 0 -1.08 1.2 -1.1 z M43.3 8.26 l-0.02 0 c-0.8 0 -0.8 0 -0.8 0.76 l0 7.96 c0 0.74 0 0.74 0.84 0.74 l0.12 0 c1.3 0 1.24 -9.46 -0.14 -9.46 z M56.98 18.86 c0.42 1 -1.82 1.48 -2.08 0.88 l-0.12 -0.28 c-0.66 -1.58 -1.38 -3.38 -2.04 -4.98 l-0.98 0 l0 5.08 c0 0.6 -2.28 0.6 -2.28 0 l0 -12.3 c0 -0.94 0.02 -1.24 1.42 -1.26 l2.06 0 c0.72 0 1.52 0.02 2.14 0.42 c1.36 0.86 1.78 2.38 1.76 3.92 c-0.02 1.28 -0.2 2.56 -1.46 3.5 c-0.14 0.08 -0.26 0.16 -0.38 0.24 c0.64 1.52 1.34 3.26 1.96 4.78 z M51.76 12.2 l1.72 0 c0.92 0 1.06 -1.12 1.1 -1.44 c0.02 -0.22 0.02 -1.02 -0.02 -1.4 c-0.08 -0.74 -0.36 -1.12 -1.28 -1.12 l-1.52 0 l0 3.96 z M62.12 17.72 l2.86 0 c0.6 0 0.6 2.28 0 2.28 l-3.86 0 c-1.28 0 -1.28 0 -1.28 -1.08 l0 -11.84 c0 -1.08 0 -1.08 1.22 -1.1 l3.9 0.02 c0.6 0 0.6 2.28 0 2.28 l-2.84 0 l0 3.64 l2 0 c0.6 0 0.6 2.3 0 2.3 l-2 0 l0 3.5 z M70.84 17.78 l3.52 0 c0.6 0 0.6 2.22 0 2.22 l-5.24 0 c-1 0 -1.54 -0.84 -1.16 -1.68 l4.48 -10.08 l-3.54 0 c-0.6 0 -0.6 -2.24 0 -2.24 l5.26 0 c1 0 1.54 0.86 1.16 1.68 z M82.94 6.42 l2.08 12.7 c0.16 1 -2.1 1.1 -2.22 0.38 l-0.4 -2.4 l-2.34 0 l-0.4 2.4 c-0.1 0.6 -2.38 0.62 -2.22 -0.38 l2.1 -12.7 c0.1 -0.6 3.32 -0.54 3.4 0 z M82.02 14.84 l-0.78 -4.78 l-0.8 4.78 l1.58 0 z"></path></g>
			</g>
		</svg>
	